<svg width="600" height="400" viewBox="0 0 600 400" fill="none" xmlns="http://www.w3.org/2000/svg">
  <!-- Background Shapes -->
  <rect x="45" y="45" width="510" height="310" rx="12" fill="#F0F4FF" />
  <circle cx="450" cy="100" r="60" fill="#E2E8FF" />
  <path d="M120 280C120 240 150 210 190 210H320C360 210 390 240 390 280V320H120V280Z" fill="#D1DEFF" />
  
  <!-- Calendar -->
  <rect x="120" y="80" width="200" height="180" rx="8" fill="white" stroke="#4F46E5" stroke-width="3" />
  <rect x="120" y="80" width="200" height="40" rx="8" fill="#4F46E5" />
  <line x1="120" y1="120" x2="320" y2="120" stroke="#4F46E5" stroke-width="2" />
  
  <!-- Calendar Days -->
  <text x="140" y="107" font-family="Arial" font-weight="bold" font-size="18" fill="white">JUNE 2023</text>
  <text x="125" y="145" font-family="Arial" font-size="12" fill="#6B7280">MON</text>
  <text x="163" y="145" font-family="Arial" font-size="12" fill="#6B7280">TUE</text>
  <text x="200" y="145" font-family="Arial" font-size="12" fill="#6B7280">WED</text>
  <text x="240" y="145" font-family="Arial" font-size="12" fill="#6B7280">THU</text>
  <text x="279" y="145" font-family="Arial" font-size="12" fill="#6B7280">FRI</text>
  
  <!-- Calendar Dates -->
  <circle cx="165" cy="185" r="15" fill="#4F46E5" />
  <text x="159" y="190" font-family="Arial" font-weight="bold" font-size="14" fill="white">12</text>
  <text x="125" y="170" font-family="Arial" font-size="14" fill="#1F2937">5</text>
  <text x="203" y="170" font-family="Arial" font-size="14" fill="#1F2937">7</text>
  <text x="242" y="170" font-family="Arial" font-size="14" fill="#1F2937">8</text>
  <text x="280" y="170" font-family="Arial" font-size="14" fill="#1F2937">9</text>
  <text x="125" y="200" font-family="Arial" font-size="14" fill="#1F2937">12</text>
  <text x="200" y="200" font-family="Arial" font-size="14" fill="#1F2937">14</text>
  <text x="240" y="200" font-family="Arial" font-size="14" fill="#1F2937">15</text>
  <text x="280" y="200" font-family="Arial" font-size="14" fill="#1F2937">16</text>
  <text x="125" y="230" font-family="Arial" font-size="14" fill="#1F2937">19</text>
  <text x="162" y="230" font-family="Arial" font-size="14" fill="#1F2937">20</text>
  <text x="200" y="230" font-family="Arial" font-size="14" fill="#1F2937">21</text>
  <text x="240" y="230" font-family="Arial" font-size="14" fill="#1F2937">22</text>
  <text x="280" y="230" font-family="Arial" font-size="14" fill="#1F2937">23</text>
  
  <!-- Event Tickets -->
  <rect x="350" y="120" width="180" height="100" rx="8" fill="white" stroke="#4F46E5" stroke-width="2" />
  <rect x="350" y="120" width="180" height="30" rx="8" fill="#4F46E5" />
  <text x="395" y="142" font-family="Arial" font-weight="bold" font-size="16" fill="white">EVENT TICKET</text>
  <line x1="350" y1="150" x2="530" y2="150" stroke="#4F46E5" stroke-width="2" />
  <text x="360" y="175" font-family="Arial" font-size="12" fill="#6B7280">Event:</text>
  <text x="400" y="175" font-family="Arial" font-weight="bold" font-size="12" fill="#1F2937">Tech Conference 2023</text>
  <text x="360" y="195" font-family="Arial" font-size="12" fill="#6B7280">Date:</text>
  <text x="400" y="195" font-family="Arial" font-weight="bold" font-size="12" fill="#1F2937">June 12, 2023</text>
  <text x="360" y="215" font-family="Arial" font-size="12" fill="#6B7280">Seat:</text>
  <text x="400" y="215" font-family="Arial" font-weight="bold" font-size="12" fill="#1F2937">A-12</text>
  
  <!-- People -->
  <circle cx="220" y="330" r="25" fill="#4F46E5" />
  <circle cx="260" y="330" r="25" fill="#8B5CF6" />
  <circle cx="300" y="330" r="25" fill="#EC4899" />
  
  <!-- Decorative Elements -->
  <rect x="380" y="240" width="120" height="30" rx="15" fill="#34D399" />
  <text x="402" y="261" font-family="Arial" font-weight="bold" font-size="14" fill="white">REGISTER</text>
  <circle cx="495" cy="70" r="15" fill="#EC4899" />
  <rect x="470" y="160" width="20" height="20" rx="4" fill="#4F46E5" />
  <rect x="450" y="190" width="15" height="15" rx="3" fill="#8B5CF6" />
  <rect x="480" y="190" width="12" height="12" rx="2" fill="#34D399" />
</svg> 